<mxfile host="app.diagrams.net" agent="Mozilla/5.0 (Windows NT 10.0; Win64; x64) AppleWebKit/537.36 (KHTML, like Gecko) Chrome/133.0.0.0 Safari/537.36" version="24.7.17">
  <diagram name="Page-1" id="oT5PC-56AD7Lfe38AtlS">
    <mxGraphModel dx="1434" dy="780" grid="1" gridSize="10" guides="1" tooltips="1" connect="1" arrows="1" fold="1" page="1" pageScale="1" pageWidth="1100" pageHeight="850" math="0" shadow="0">
      <root>
        <mxCell id="0" />
        <mxCell id="1" parent="0" />
        <mxCell id="mKhf9dtW4CV4-tsM36OP-2" value="" style="rounded=1;whiteSpace=wrap;html=1;" vertex="1" parent="1">
          <mxGeometry x="320" y="230" width="120" height="170" as="geometry" />
        </mxCell>
        <mxCell id="mKhf9dtW4CV4-tsM36OP-3" value="" style="rounded=1;whiteSpace=wrap;html=1;" vertex="1" parent="1">
          <mxGeometry x="770" y="460" width="130" height="180" as="geometry" />
        </mxCell>
        <mxCell id="mKhf9dtW4CV4-tsM36OP-5" value="&lt;h1 style=&quot;margin-top: 0px; font-size: 14px;&quot;&gt;&lt;font style=&quot;font-size: 14px;&quot;&gt;Users&lt;/font&gt;&lt;/h1&gt;&lt;div style=&quot;font-size: 14px;&quot;&gt;&lt;font style=&quot;font-size: 14px;&quot;&gt;PK id&lt;/font&gt;&lt;/div&gt;&lt;div style=&quot;font-size: 14px;&quot;&gt;&lt;font style=&quot;font-size: 14px;&quot;&gt;email&lt;/font&gt;&lt;/div&gt;&lt;div style=&quot;font-size: 14px;&quot;&gt;&lt;font style=&quot;font-size: 14px;&quot;&gt;password_hash&lt;br&gt;&lt;span style=&quot;&quot; class=&quot;hljs-type&quot;&gt;name&lt;/span&gt;&lt;br&gt;created_at&amp;nbsp;&lt;/font&gt;&lt;/div&gt;" style="text;html=1;whiteSpace=wrap;overflow=hidden;rounded=0;" vertex="1" parent="1">
          <mxGeometry x="330" y="240" width="180" height="120" as="geometry" />
        </mxCell>
        <mxCell id="mKhf9dtW4CV4-tsM36OP-7" value="&lt;h1 style=&quot;margin-top: 0px; font-size: 15px;&quot;&gt;&lt;font style=&quot;font-size: 15px;&quot;&gt;Books&lt;/font&gt;&lt;/h1&gt;&lt;div style=&quot;font-size: 15px;&quot;&gt;&lt;font style=&quot;font-size: 15px;&quot;&gt;PK id&lt;/font&gt;&lt;/div&gt;&lt;div style=&quot;font-size: 15px;&quot;&gt;&lt;font style=&quot;font-size: 15px;&quot;&gt;title&lt;/font&gt;&lt;/div&gt;&lt;div style=&quot;font-size: 15px;&quot;&gt;&lt;font style=&quot;font-size: 15px;&quot;&gt;author&lt;/font&gt;&lt;/div&gt;&lt;div style=&quot;font-size: 15px;&quot;&gt;&lt;font style=&quot;font-size: 15px;&quot;&gt;price&lt;/font&gt;&lt;/div&gt;&lt;div style=&quot;font-size: 15px;&quot;&gt;&lt;font style=&quot;font-size: 15px;&quot;&gt;stock&lt;/font&gt;&lt;/div&gt;&lt;div style=&quot;font-size: 15px;&quot;&gt;&lt;font style=&quot;font-size: 15px;&quot;&gt;created_at&amp;nbsp;&amp;nbsp;&lt;/font&gt;&lt;/div&gt;" style="text;html=1;whiteSpace=wrap;overflow=hidden;rounded=0;" vertex="1" parent="1">
          <mxGeometry x="780" y="475" width="180" height="150" as="geometry" />
        </mxCell>
        <mxCell id="mKhf9dtW4CV4-tsM36OP-10" value="" style="rounded=1;whiteSpace=wrap;html=1;" vertex="1" parent="1">
          <mxGeometry x="550" y="225" width="120" height="180" as="geometry" />
        </mxCell>
        <mxCell id="mKhf9dtW4CV4-tsM36OP-11" value="&lt;h1 style=&quot;margin-top: 0px;&quot;&gt;Orders&lt;/h1&gt;&lt;div&gt;PK id&lt;/div&gt;&lt;div&gt;FK user_id&lt;/div&gt;&lt;div&gt;total_price&lt;/div&gt;&lt;div&gt;&lt;span class=&quot;hljs-built_in&quot;&gt;status&lt;/span&gt;&lt;/div&gt;&lt;div&gt;created_at&lt;/div&gt;" style="text;html=1;whiteSpace=wrap;overflow=hidden;rounded=0;" vertex="1" parent="1">
          <mxGeometry x="560" y="235" width="180" height="125" as="geometry" />
        </mxCell>
        <mxCell id="mKhf9dtW4CV4-tsM36OP-12" value="" style="rounded=1;whiteSpace=wrap;html=1;" vertex="1" parent="1">
          <mxGeometry x="770" y="225" width="120" height="180" as="geometry" />
        </mxCell>
        <mxCell id="mKhf9dtW4CV4-tsM36OP-16" value="&lt;h1 style=&quot;margin-top: 0px;&quot;&gt;Ordered items&lt;/h1&gt;&lt;div&gt;PK, FK order_id&lt;/div&gt;&lt;div&gt;PK, FK book_id&lt;/div&gt;&lt;div&gt;quantity&lt;/div&gt;&lt;div&gt;price&amp;nbsp; &amp;nbsp;&lt;/div&gt;" style="text;html=1;whiteSpace=wrap;overflow=hidden;rounded=0;" vertex="1" parent="1">
          <mxGeometry x="780" y="230" width="120" height="140" as="geometry" />
        </mxCell>
        <mxCell id="mKhf9dtW4CV4-tsM36OP-17" value="" style="endArrow=classic;html=1;rounded=0;entryX=0;entryY=0.806;entryDx=0;entryDy=0;entryPerimeter=0;exitX=1.017;exitY=0.829;exitDx=0;exitDy=0;exitPerimeter=0;" edge="1" parent="1" source="mKhf9dtW4CV4-tsM36OP-2" target="mKhf9dtW4CV4-tsM36OP-10">
          <mxGeometry width="50" height="50" relative="1" as="geometry">
            <mxPoint x="530" y="420" as="sourcePoint" />
            <mxPoint x="580" y="370" as="targetPoint" />
          </mxGeometry>
        </mxCell>
        <mxCell id="mKhf9dtW4CV4-tsM36OP-18" value="" style="endArrow=classic;html=1;rounded=0;exitX=1;exitY=0.817;exitDx=0;exitDy=0;exitPerimeter=0;entryX=-0.025;entryY=0.822;entryDx=0;entryDy=0;entryPerimeter=0;" edge="1" parent="1" source="mKhf9dtW4CV4-tsM36OP-10" target="mKhf9dtW4CV4-tsM36OP-12">
          <mxGeometry width="50" height="50" relative="1" as="geometry">
            <mxPoint x="530" y="420" as="sourcePoint" />
            <mxPoint x="580" y="370" as="targetPoint" />
          </mxGeometry>
        </mxCell>
        <mxCell id="mKhf9dtW4CV4-tsM36OP-19" value="" style="endArrow=classic;startArrow=classic;html=1;rounded=0;exitX=0.5;exitY=0;exitDx=0;exitDy=0;entryX=0.5;entryY=1;entryDx=0;entryDy=0;" edge="1" parent="1" source="mKhf9dtW4CV4-tsM36OP-3" target="mKhf9dtW4CV4-tsM36OP-12">
          <mxGeometry width="50" height="50" relative="1" as="geometry">
            <mxPoint x="530" y="420" as="sourcePoint" />
            <mxPoint x="580" y="370" as="targetPoint" />
          </mxGeometry>
        </mxCell>
      </root>
    </mxGraphModel>
  </diagram>
</mxfile>
